<svg width="48" height="48" viewBox="0 0 48 48" fill="none" xmlns="http://www.w3.org/2000/svg">
<path d="M41 22.6V14.08C41 6.02002 39.12 4 31.56 4H16.44C8.88 4 7 6.02002 7 14.08V36.6C7 41.92 9.92002 43.18 13.46 39.38L13.48 39.36C15.12 37.62 17.62 37.76 19.04 39.66L21.06 42.36" stroke="#292D32" stroke-width="2" stroke-linecap="round" stroke-linejoin="round"/>
<path d="M16 14H32" stroke="#292D32" stroke-width="2" stroke-linecap="round" stroke-linejoin="round"/>
<path d="M18 22H30" stroke="#292D32" stroke-width="2" stroke-linecap="round" stroke-linejoin="round"/>
<path d="M36.422 29.5406L29.3421 36.6206C29.0621 36.9006 28.802 37.4206 28.742 37.8006L28.362 40.5006C28.222 41.4806 28.902 42.1606 29.882 42.0206L32.582 41.6406C32.962 41.5806 33.502 41.3206 33.762 41.0406L40.8421 33.9606C42.0621 32.7406 42.6421 31.3206 40.8421 29.5206C39.0621 27.7406 37.642 28.3206 36.422 29.5406Z" stroke="#292D32" stroke-width="2" stroke-miterlimit="10" stroke-linecap="round" stroke-linejoin="round"/>
<path d="M35.3984 30.5625C35.9984 32.7225 37.6784 34.4025 39.8384 35.0025" stroke="#292D32" stroke-width="2" stroke-miterlimit="10" stroke-linecap="round" stroke-linejoin="round"/>
</svg>
