<svg width="48" height="48" viewBox="0 0 48 48" fill="none" xmlns="http://www.w3.org/2000/svg">
<path d="M19 27.5005C19 29.4405 20.5 31.0005 22.34 31.0005H26.1C27.7 31.0005 29 29.6405 29 27.9405C29 26.1205 28.2 25.4605 27.02 25.0405L21 22.9405C19.82 22.5205 19.02 21.8805 19.02 20.0405C19.02 18.3605 20.32 16.9805 21.92 16.9805H25.68C27.52 16.9805 29.02 18.5405 29.02 20.4805" stroke="#292D32" stroke-width="2" stroke-linecap="round" stroke-linejoin="round"/>
<path d="M24 15V33" stroke="#292D32" stroke-width="2" stroke-linecap="round" stroke-linejoin="round"/>
<path d="M44 24C44 35.04 35.04 44 24 44C12.96 44 4 35.04 4 24C4 12.96 12.96 4 24 4" stroke="#292D32" stroke-width="2" stroke-linecap="round" stroke-linejoin="round"/>
<path d="M44 12V4H36" stroke="#292D32" stroke-width="2" stroke-linecap="round" stroke-linejoin="round"/>
<path d="M34 14L44 4" stroke="#292D32" stroke-width="2" stroke-linecap="round" stroke-linejoin="round"/>
</svg>
