<svg width="101" height="116" viewBox="0 0 101 116" fill="none" xmlns="http://www.w3.org/2000/svg">
<g clip-path="url(#clip0_1538_36860)">
<path d="M74.1437 74.7953V79.9036C74.1437 85.0878 69.9135 89.3056 64.7139 89.3056H59.6597C59.4866 90.2859 59.4036 91.3006 59.4036 92.3292C59.4036 93.2956 59.4798 94.2483 59.6321 95.1733H64.7208C73.1675 95.1733 80.0356 88.3254 80.0356 79.9036V74.7332C79.1356 74.5951 78.2078 74.5192 77.2662 74.5192C76.2069 74.5192 75.1684 74.6158 74.1507 74.7884L74.1437 74.7953ZM64.7139 0H15.3148C6.86811 0 0 6.8479 0 15.2628V79.9105C0 88.3323 6.86811 95.1802 15.3148 95.1802H53.6917C53.574 94.2483 53.5186 93.2956 53.5186 92.3361C53.5186 91.3144 53.5878 90.3066 53.7125 89.3125H15.3148C10.1152 89.3125 5.88497 85.0947 5.88497 79.9105V15.2628C5.88497 10.0786 10.1152 5.86075 15.3148 5.86075H64.7139C69.9135 5.86075 74.1437 10.0786 74.1437 15.2628V68.8655C75.1615 68.7343 76.2 68.6653 77.2593 68.6653C78.2009 68.6653 79.1217 68.7205 80.0287 68.831V15.2628C80.0287 6.8479 73.1606 0 64.7139 0Z" fill="#FFA776"/>
<path d="M26.6897 24.3752C26.6897 25.9975 25.3742 27.3091 23.7472 27.3091H15.5498C17.1768 27.3091 18.4923 25.9975 18.4923 24.3752V21.4414H23.7472C25.3742 21.4414 26.6897 22.753 26.6897 24.3752Z" fill="#F9C742"/>
<path d="M18.4924 16.2034V21.4428H15.5499C13.9229 21.4428 12.6074 22.7544 12.6074 24.3767V16.2034C12.6074 14.5811 13.9229 13.2695 15.5499 13.2695C17.1769 13.2695 18.4924 14.5811 18.4924 16.2034Z" fill="#FFA776"/>
<path d="M18.4924 21.4492V24.383C18.4924 26.0053 17.1769 27.3169 15.5499 27.3169C13.9229 27.3169 12.6074 26.0053 12.6074 24.383C12.6074 22.7608 13.9229 21.4492 15.5499 21.4492H18.4924Z" fill="#F78028"/>
<path d="M47.052 24.3752C47.052 25.9975 45.7365 27.3091 44.1095 27.3091H35.9121C37.5391 27.3091 38.8546 25.9975 38.8546 24.3752V21.4414H44.1095C45.7365 21.4414 47.052 22.753 47.052 24.3752Z" fill="#F9C742"/>
<path d="M38.8542 16.2034V21.4428H35.9117C34.2847 21.4428 32.9692 22.7544 32.9692 24.3767V16.2034C32.9692 14.5811 34.2847 13.2695 35.9117 13.2695C37.5387 13.2695 38.8542 14.5811 38.8542 16.2034Z" fill="#FFA776"/>
<path d="M38.8542 21.4492V24.383C38.8542 26.0053 37.5387 27.3169 35.9117 27.3169C34.2847 27.3169 32.9692 26.0053 32.9692 24.383C32.9692 22.7608 34.2847 21.4492 35.9117 21.4492H38.8542Z" fill="#F78028"/>
<path d="M67.4138 24.3752C67.4138 25.9975 66.0983 27.3091 64.4713 27.3091H56.2739C57.9009 27.3091 59.2164 25.9975 59.2164 24.3752V21.4414H64.4713C66.0983 21.4414 67.4138 22.753 67.4138 24.3752Z" fill="#F9C742"/>
<path d="M59.2165 16.2034V21.4428H56.274C54.647 21.4428 53.3315 22.7544 53.3315 24.3767V16.2034C53.3315 14.5811 54.647 13.2695 56.274 13.2695C57.9011 13.2695 59.2165 14.5811 59.2165 16.2034Z" fill="#FFA776"/>
<path d="M59.2165 21.4492V24.383C59.2165 26.0053 57.9011 27.3169 56.274 27.3169C54.647 27.3169 53.3315 26.0053 53.3315 24.383C53.3315 22.7608 54.647 21.4492 56.274 21.4492H59.2165Z" fill="#F78028"/>
<path d="M26.6897 42.2346C26.6897 43.8568 25.3742 45.1684 23.7472 45.1684H15.5498C17.1768 45.1684 18.4923 43.8568 18.4923 42.2346V39.3008H23.7472C25.3742 39.3008 26.6897 40.6193 26.6897 42.2346Z" fill="#F9C742"/>
<path d="M18.4924 39.3008V42.2346C18.4924 43.8568 17.1769 45.1684 15.5499 45.1684C13.9229 45.1684 12.6074 43.8568 12.6074 42.2346C12.6074 40.6124 13.9229 39.3008 15.5499 39.3008H18.4924Z" fill="#F78028"/>
<path d="M18.4924 34.0627V39.3022H15.5499C13.9229 39.3022 12.6074 40.6207 12.6074 42.236V34.0627C12.6074 32.4405 13.9229 31.1289 15.5499 31.1289C17.1769 31.1289 18.4924 32.4405 18.4924 34.0627Z" fill="#FFA776"/>
<path d="M47.052 42.2346C47.052 43.8568 45.7365 45.1684 44.1095 45.1684H35.9121C37.5391 45.1684 38.8546 43.8568 38.8546 42.2346V39.3008H44.1095C45.7365 39.3008 47.052 40.6193 47.052 42.2346Z" fill="#F9C742"/>
<path d="M38.8542 34.0627V39.3022H35.9117C34.2847 39.3022 32.9692 40.6207 32.9692 42.236V34.0627C32.9692 32.4405 34.2847 31.1289 35.9117 31.1289C37.5387 31.1289 38.8542 32.4405 38.8542 34.0627Z" fill="#FFA776"/>
<path d="M38.8542 39.3008V42.2346C38.8542 43.8568 37.5387 45.1684 35.9117 45.1684C34.2847 45.1684 32.9692 43.8568 32.9692 42.2346C32.9692 40.6124 34.2847 39.3008 35.9117 39.3008H38.8542Z" fill="#F78028"/>
<path d="M67.4138 42.2346C67.4138 43.8568 66.0983 45.1684 64.4713 45.1684H56.2739C57.9009 45.1684 59.2164 43.8568 59.2164 42.2346V39.3008H64.4713C66.0983 39.3008 67.4138 40.6193 67.4138 42.2346Z" fill="#F9C742"/>
<path d="M59.2165 34.0627V39.3022H56.274C54.647 39.3022 53.3315 40.6207 53.3315 42.236V34.0627C53.3315 32.4405 54.647 31.1289 56.274 31.1289C57.9011 31.1289 59.2165 32.4405 59.2165 34.0627Z" fill="#FFA776"/>
<path d="M59.2165 39.3008V42.2346C59.2165 43.8568 57.9011 45.1684 56.274 45.1684C54.647 45.1684 53.3315 43.8568 53.3315 42.2346C53.3315 40.6124 54.647 39.3008 56.274 39.3008H59.2165Z" fill="#F78028"/>
<path d="M26.6897 60.094C26.6897 61.7162 25.3742 63.0278 23.7472 63.0278H15.5498C17.1768 63.0278 18.4923 61.7162 18.4923 60.094V57.1602H23.7472C25.3742 57.1602 26.6897 58.4717 26.6897 60.094Z" fill="#F9C742"/>
<path d="M18.4924 51.9182V57.1577H15.5499C13.9229 57.1577 12.6074 58.4693 12.6074 60.0915V51.9182C12.6074 50.296 13.9229 48.9844 15.5499 48.9844C17.1769 48.9844 18.4924 50.296 18.4924 51.9182Z" fill="#FFA776"/>
<path d="M18.4924 57.1562V60.0901C18.4924 61.7123 17.1769 63.0239 15.5499 63.0239C13.9229 63.0239 12.6074 61.7123 12.6074 60.0901C12.6074 58.4678 13.9229 57.1562 15.5499 57.1562H18.4924Z" fill="#F78028"/>
<path d="M47.052 60.094C47.052 61.7162 45.7365 63.0278 44.1095 63.0278H35.9121C37.5391 63.0278 38.8546 61.7162 38.8546 60.094V57.1602H44.1095C45.7365 57.1602 47.052 58.4717 47.052 60.094Z" fill="#F9C742"/>
<path d="M38.8542 51.9182V57.1577H35.9117C34.2847 57.1577 32.9692 58.4693 32.9692 60.0915V51.9182C32.9692 50.296 34.2847 48.9844 35.9117 48.9844C37.5387 48.9844 38.8542 50.296 38.8542 51.9182Z" fill="#FFA776"/>
<path d="M38.8542 57.1562V60.0901C38.8542 61.7123 37.5387 63.0239 35.9117 63.0239C34.2847 63.0239 32.9692 61.7123 32.9692 60.0901C32.9692 58.4678 34.2847 57.1562 35.9117 57.1562H38.8542Z" fill="#F78028"/>
<path d="M47.052 78.9651C47.052 80.5873 45.7365 81.8989 44.1095 81.8989H35.9121C37.5391 81.8989 38.8546 80.5804 38.8546 78.9651V76.0312H44.1095C45.7365 76.0312 47.052 77.3428 47.052 78.9651Z" fill="#F9C742"/>
<path d="M38.8542 70.7932V76.0327H35.9117C34.2847 76.0327 32.9692 77.3443 32.9692 78.9665V70.7932C32.9692 69.171 34.2847 67.8594 35.9117 67.8594C37.5387 67.8594 38.8542 69.171 38.8542 70.7932Z" fill="#FFA776"/>
<path d="M38.8542 76.0312V78.9651C38.8542 80.5873 37.5387 81.8989 35.9117 81.8989C34.2847 81.8989 32.9692 80.5804 32.9692 78.9651C32.9692 77.3497 34.2847 76.0312 35.9117 76.0312H38.8542Z" fill="#F78028"/>
<path d="M67.4138 60.094C67.4138 61.7162 66.0983 63.0278 64.4713 63.0278H56.2739C57.9009 63.0278 59.2164 61.7162 59.2164 60.094V57.1602H64.4713C66.0983 57.1602 67.4138 58.4717 67.4138 60.094Z" fill="#F9C742"/>
<path d="M59.2165 51.9182V57.1577H56.274C54.647 57.1577 53.3315 58.4693 53.3315 60.0915V51.9182C53.3315 50.296 54.647 48.9844 56.274 48.9844C57.9011 48.9844 59.2165 50.296 59.2165 51.9182Z" fill="#FFA776"/>
<path d="M59.2165 57.1562V60.0901C59.2165 61.7123 57.9011 63.0239 56.274 63.0239C54.647 63.0239 53.3315 61.7123 53.3315 60.0901C53.3315 58.4678 54.647 57.1562 56.274 57.1562H59.2165Z" fill="#F78028"/>
<path d="M98.0573 92.3279C98.0573 103.78 88.7452 113.065 77.2591 113.065C66.7423 113.065 58.0464 105.278 56.6548 95.172H59.6319C59.4796 94.247 59.4034 93.2944 59.4034 92.3279C59.4034 91.2994 59.4934 90.2846 59.6596 89.3044H56.6756C57.998 80.2958 65.1222 73.1718 74.1435 71.8188V74.794C75.1544 74.6145 76.1929 74.5248 77.2591 74.5248C78.2007 74.5248 79.1285 74.5938 80.0285 74.7388V71.7773C90.2061 73.1235 98.0573 81.8145 98.0573 92.3279Z" fill="white"/>
<path d="M80.0289 68.8242V74.7402C88.5656 76.0725 95.1152 83.4519 95.1152 92.3293C95.1152 102.146 87.1047 110.139 77.2595 110.139C68.3836 110.139 60.9962 103.644 59.6323 95.1734H53.6919C55.1043 106.888 65.1365 116 77.2595 116C90.3518 116 101 105.383 101 92.3293C101 80.2144 91.8196 70.191 80.0358 68.8242H80.0289ZM59.6599 89.3058C60.9269 81.9332 66.7635 76.0932 74.1439 74.7954V68.8656C63.5094 70.2601 55.0697 78.6957 53.7058 89.3127H59.6531L59.6599 89.3058Z" fill="#F9C742"/>
<path d="M80.0285 68.8228V74.7388C79.1285 74.6007 78.2007 74.5248 77.2591 74.5248C76.1998 74.5248 75.1613 74.6214 74.1436 74.794V68.8642C75.1613 68.7331 76.1998 68.6641 77.2591 68.6641C78.2007 68.6641 79.1215 68.7193 80.0285 68.8297V68.8228Z" fill="#F78028"/>
<path d="M59.3967 92.3283C59.3967 93.2947 59.4729 94.2473 59.6252 95.1723H53.6848C53.5671 94.2404 53.5117 93.2878 53.5117 92.3283C53.5117 91.3066 53.581 90.2987 53.7056 89.3047H59.6529C59.4799 90.2849 59.3967 91.2997 59.3967 92.3283Z" fill="#F78028"/>
<path d="M65.3507 89.8867H74.3305V94.8294H65.3507C63.9799 94.8294 62.8721 93.7249 62.8721 92.358C62.8721 90.9912 63.9799 89.8867 65.3507 89.8867Z" fill="#F9C742"/>
<path d="M91.4453 92.358C91.4453 93.7249 90.3376 94.8294 88.9667 94.8294H80.2085V89.8867H88.9667C90.3376 89.8867 91.4453 90.9912 91.4453 92.358Z" fill="#F9C742"/>
<path d="M80.2086 89.8867H74.3306V94.8294H80.2086V89.8867Z" fill="#F78028"/>
<path d="M80.2086 80.6916V89.8866H74.3306V80.6916C74.3306 79.0694 75.646 77.7578 77.2731 77.7578C78.9001 77.7578 80.2155 79.0694 80.2155 80.6916H80.2086Z" fill="#FFA776"/>
<path d="M74.3307 94.8281H80.2087V104.237C80.2087 105.859 78.8932 107.171 77.2662 107.171C75.6392 107.171 74.3237 105.852 74.3237 104.237V94.8281H74.3307Z" fill="#FFA776"/>
</g>
<defs>
<clipPath id="clip0_1538_36860">
<rect width="101" height="116" fill="white"/>
</clipPath>
</defs>
</svg>
