<svg width="91" height="90" viewBox="0 0 91 90" fill="none" xmlns="http://www.w3.org/2000/svg">
<path fill-rule="evenodd" clip-rule="evenodd" d="M86.6429 50.9478C88.7731 50.9478 90.5 52.6747 90.5 54.8049C90.5 71.0022 78.7648 84.8306 62.6076 88.0694L60.0445 88.5832C50.7058 90.4552 41.0727 90.4723 31.727 88.6336L28.4246 87.9838C12.2629 84.8041 0.5 70.9959 0.5 54.8049C0.5 52.6747 2.2269 50.9478 4.35714 50.9478C6.48739 50.9478 8.21429 52.6747 8.21429 54.8049C8.21429 67.1404 17.2006 77.9134 29.9138 80.4146L33.2162 81.0644C41.5695 82.7079 50.1814 82.6925 58.5283 81.0194L61.0914 80.5056C73.8117 77.9558 82.7857 67.1582 82.7857 54.8049C82.7857 52.6747 84.5126 50.9478 86.6429 50.9478Z" fill="#2D317F"/>
<path fill-rule="evenodd" clip-rule="evenodd" d="M57.7838 8.93561C49.4305 7.29215 40.8186 7.30747 32.4717 8.98063L29.9086 9.49442C17.1883 12.0442 8.21429 22.8418 8.21429 35.1951C8.21429 37.3253 6.48739 39.0522 4.35714 39.0522C2.2269 39.0522 0.5 37.3253 0.5 35.1951C0.5 18.9978 12.2352 5.16937 28.3924 1.9306L30.9555 1.41682C40.2942 -0.455155 49.9273 -0.472287 59.273 1.36643L62.5754 2.01617C78.7371 5.19591 90.5 19.0041 90.5 35.1951C90.5 37.3253 88.7731 39.0522 86.6429 39.0522C84.5126 39.0522 82.7857 37.3253 82.7857 35.1951C82.7857 22.8596 73.7994 12.0866 61.0862 9.58535L57.7838 8.93561Z" fill="#2D317F"/>
<path fill-rule="evenodd" clip-rule="evenodd" d="M62.7319 59.9426C51.7613 55.0668 39.2387 55.0668 28.2681 59.9426L23.9237 61.8734C21.977 62.7386 19.6976 61.8619 18.8324 59.9153C17.9673 57.9686 18.844 55.6892 20.7906 54.824L25.1351 52.8932C38.1003 47.1308 52.8997 47.1308 65.865 52.8932L70.2094 54.824C72.1561 55.6892 73.0327 57.9686 72.1676 59.9153C71.3024 61.8619 69.023 62.7386 67.0763 61.8734L62.7319 59.9426Z" fill="#2D317F"/>
</svg>
